<svg width="600" height="600" viewBox="0 0 600 600" fill="none" xmlns="http://www.w3.org/2000/svg">
<path d="M300 600C465.685 600 600 465.685 600 300C600 134.315 465.685 0 300 0C134.315 0 0 134.315 0 300C0 465.685 134.315 600 300 600Z" fill="#7B7B7B" fill-opacity="0.24"/>
<path d="M206.25 300L277.271 371.021C279.469 373.219 283.031 373.219 285.229 371.021L431.25 225" stroke="#2563EB" stroke-width="40"/>
<path d="M581.251 301.125C581.251 356.752 564.754 411.127 533.851 457.38C502.947 503.629 459.023 539.678 407.629 560.966C356.239 582.255 299.689 587.824 245.131 576.971C190.574 566.119 140.46 539.333 101.127 499.999C61.7935 460.665 35.0069 410.55 24.1547 355.995C13.3026 301.436 18.8725 244.886 40.1594 193.495C61.4466 142.104 97.495 98.1784 143.746 67.2742C189.998 36.3701 244.373 19.875 300.001 19.875" stroke="#2563EB" stroke-width="33.3333" stroke-linecap="round"/>
</svg>
