<svg width="540" height="598" viewBox="0 0 540 598" fill="none" xmlns="http://www.w3.org/2000/svg">
<path d="M270 322.444V570L20 415.278V167.722L270 13L520 167.722L270 322.444Z" fill="#7B7B7B" fill-opacity="0.24"/>
<path d="M270 577.63V326.886M270 577.63L49.9114 439.664C35.2482 430.475 27.9164 425.877 23.9582 419.128C20 412.377 20 404.469 20 388.657V170.171M270 577.63L490.089 439.664C504.75 430.475 512.082 425.877 516.043 419.128C520 412.377 520 404.469 520 388.657V170.171M270 326.886L20 170.171M270 326.886L520 170.171M20 170.171L228.482 39.481C248.532 26.9137 258.554 20.63 270 20.63C281.446 20.63 291.468 26.9137 311.518 39.481L520 170.171" stroke="#2563EB" stroke-width="40" stroke-linejoin="round"/>
</svg>
