<svg width="800" height="800" viewBox="0 0 800 800" fill="none" xmlns="http://www.w3.org/2000/svg">
<g clip-path="url(#clip0_246_4)">
<path d="M0 800L55.1719 600C19.3109 537.931 0 468.966 0 397.241C0 179.311 179.311 0 398.62 0C617.93 0 800 179.311 800 397.241C800 615.17 617.931 800 398.62 800C329.655 800 263.448 777.931 204.137 744.828L0 800Z" fill="#F8F8FE"/>
<path d="M215.172 673.103L227.586 680C278.621 711.723 337.931 731.034 400 731.034C580.689 731.034 731.035 580.689 731.035 397.241C731.035 213.792 580.689 68.9656 398.621 68.9656C216.552 68.9656 68.9658 215.172 68.9658 397.241C68.9658 460.689 86.8971 522.758 120 575.172L128.277 587.586L96.5533 703.448L215.172 673.103Z" fill="#55CD6C"/>
<path d="M292.414 212.414L266.208 211.034C257.931 211.034 249.656 213.794 244.139 219.311C231.725 230.345 211.036 251.034 205.519 278.622C195.864 320.002 211.036 369.656 246.899 419.311C282.761 468.966 351.727 548.966 473.105 583.448C511.725 594.483 542.071 587.586 566.899 572.414C586.21 560 598.622 540.691 602.761 520L606.899 500.689C608.278 495.172 605.519 488.275 600.002 485.517L513.105 445.517C507.588 442.758 500.691 444.137 496.553 449.655L462.071 493.792C459.311 496.552 455.174 497.93 451.036 496.552C427.588 488.275 348.967 455.172 306.208 372.414C304.828 368.277 304.828 364.138 307.588 361.38L340.691 324.139C343.45 320.002 344.828 314.484 343.45 310.345L303.45 220.691C302.069 216.552 297.931 212.414 292.414 212.414Z" fill="#F8F8FE"/>
</g>
<defs>
<clipPath id="clip0_246_4">
<rect width="800" height="800" fill="white"/>
</clipPath>
</defs>
</svg>
